<?xml version="1.0" encoding="utf-8"?>
<!-- Generator: Adobe Illustrator 28.0.0, SVG Export Plug-In . SVG Version: 6.00 Build 0)  -->
<svg version="1.1" id="Layer_1" xmlns="http://www.w3.org/2000/svg" xmlns:xlink="http://www.w3.org/1999/xlink" x="0px" y="0px"
	 viewBox="0 0 181.3 30.7" style="enable-background:new 0 0 181.3 30.7;" xml:space="preserve">
<style type="text/css">
	.st0{fill:#FFFFFF;}
</style>
<path id="_x3C_Path_x3E_" class="st0" d="M0.4,0H22c2.9,0.3,6.2,0.7,8.4,2.9c2.5,2.7,2.7,7.6-0.1,10.2c-1,0.9-2.1,1.5-3.1,2.3
	c1.9,1.1,4.2,2.2,5,4.4c1,3.2,0.1,7.3-3,9.1c-2.3,1.3-5.1,1.6-7.7,1.8H0.4V0z M8,5.5c0,2.4,0,4.7,0,7.1c4.6-0.2,9.3,0.4,13.8-0.4
	c3.2-0.7,3-6-0.3-6.4C17,5.1,12.5,5.6,8,5.5z M8,18c0,2.4,0,4.8,0,7.2c4.6-0.2,9.3,0.4,13.8-0.3c3.2-0.6,3.2-5.8,0-6.5
	C17.3,17.6,12.6,18.2,8,18z"/>
<path class="st0" d="M54,0h32.2c0,1.8,0,3.6,0,5.4c-4,0-8,0-12.1,0c0,8.4,0,16.9,0,25.3H66c0-8.4,0-16.9,0-25.3c-4,0-8,0-12,0
	C54,3.6,54,1.8,54,0z"/>
<path class="st0" d="M102.8,0h14.1c0,1.8,0,3.5,0,5.3c-5.5,0.2-11.1-0.5-16.6,0.4c-3.2,0.6-5.1,3.6-5.4,6.7c7.3,0,14.6,0,21.9,0
	c0,1.8,0,3.5,0,5.3c-7.3,0-14.6,0-21.9,0c0.2,2.9,1.3,6.3,4.5,6.9c5.7,1.1,11.5,0.3,17.3,0.6c0,1.8,0,3.5,0,5.3h-14.1
	c-4.2-0.2-8.7-1-12.1-3.7c-3-2.4-4.3-6.3-4.4-10c-0.2-4.5,0.6-9.5,4.1-12.8C93.7,1,98.4,0.3,102.8,0z"/>
<path class="st0" d="M135,0h14.1c0,1.7,0,3.5,0,5.2c-5.1,0.1-10.3-0.3-15.4,0.2c-2.9,0.3-5.3,2.6-5.9,5.4c-0.9,3.4-1.1,7.1,0,10.5
	c0.8,2.5,3.5,3.8,6,3.9c5.1,0.3,10.2,0,15.3,0.1c0,1.8,0,3.5,0,5.3H135c-4.4-0.2-9.1-1-12.4-4.1c-2.9-2.6-4.1-6.6-4.1-10.5
	c-0.1-4.3,0.9-9,4.1-12C125.9,1,130.6,0.3,135,0z"/>
<path class="st0" d="M152.2,0h7.6c0,4.1,0,8.3,0,12.4c4.7,0,9.3,0,14,0c0-4.1,0-8.3,0-12.4h7.5v30.7h-7.5c0-4.3,0-8.6,0-12.8
	c-4.7,0-9.3,0-14,0c0,4.3,0,8.5,0,12.8h-7.6C152.2,20.4,152.2,10.2,152.2,0z"/>
<path class="st0" d="M41.6,13.6c4.8-3.1,11.9-0.4,13.5,5.1c2,5.5-2.5,11.8-8.2,12h-1c-2.6-0.3-5.1-1.4-6.7-3.5
	C35.7,23.1,37,16.2,41.6,13.6z"/>
</svg>
