<?xml version="1.0" encoding="utf-8"?>
<!-- Generator: Adobe Illustrator 28.0.0, SVG Export Plug-In . SVG Version: 6.00 Build 0)  -->
<svg version="1.1" id="Layer_1" xmlns="http://www.w3.org/2000/svg" xmlns:xlink="http://www.w3.org/1999/xlink" x="0px" y="0px"
	 viewBox="0 0 155 54" style="enable-background:new 0 0 155 54;" xml:space="preserve">
<style type="text/css">
	.st0{fill:#FFFFFF;}
</style>
<g id="Group_114" transform="translate(-264.805 -0.855)">
	<g id="Group_121">
		<path id="Path_84" class="st0" d="M284.5,13L284.5,13c0-4.3,3-7.7,7-7.7c4.3,0,6.8,3.5,6.8,7.7c0,0.2,0,0.5,0,0.7h-11.6
			c0.1,2.8,2.4,5,5.2,4.9c1.8,0,3.4-0.7,4.6-2.1l1.4,1.2c-1.5,1.8-3.7,2.8-6,2.8c-4,0-7.3-3.2-7.3-7.2
			C284.5,13.2,284.5,13.1,284.5,13 M296.2,12.1c-0.2-2.7-1.7-5-4.7-5c-2.6,0-4.5,2.1-4.7,5H296.2z"/>
		<path id="Path_85" class="st0" d="M300.7,5.6h2.2v2.5c1-1.8,2.9-2.9,5-2.8c3.5,0,5.6,2.4,5.6,5.8v9.1h-2.2v-8.5
			c0-2.7-1.5-4.4-4.1-4.4c-2.4,0-4.3,1.8-4.4,4.2c0,0.1,0,0.2,0,0.4v8.4h-2.2V5.6z"/>
		<path id="Path_86" class="st0" d="M315.7,13L315.7,13c0-4.3,3.5-7.6,7.7-7.6c4.1,0,7.5,3.4,7.6,7.5V13c0,4.2-3.4,7.6-7.5,7.6
			c0,0-0.1,0-0.1,0c-4.1,0-7.5-3.3-7.6-7.4C315.7,13.1,315.7,13.1,315.7,13 M328.8,13L328.8,13c0.1-3.1-2.3-5.7-5.4-5.8
			c0,0,0,0-0.1,0c-3,0-5.4,2.5-5.3,5.5c0,0.1,0,0.1,0,0.2V13c-0.1,3,2.3,5.6,5.3,5.7c0,0,0.1,0,0.1,0c3,0,5.4-2.4,5.4-5.4
			C328.8,13.1,328.8,13.1,328.8,13"/>
		<path id="Path_87" class="st0" d="M331.1,5.6h2.4l4.9,12.1l5-12.1h2.4l-6.4,14.7h-1.9L331.1,5.6z"/>
		<path id="Path_88" class="st0" d="M345.8,13L345.8,13c0-4.3,3.4-7.7,7.6-7.7c4.2,0,7.6,3.4,7.7,7.6V13c0,4.2-3.4,7.6-7.6,7.6
			c0,0-0.1,0-0.1,0c-4.1,0-7.5-3.3-7.6-7.4C345.8,13.1,345.8,13.1,345.8,13 M358.8,13L358.8,13c0.1-3.1-2.3-5.7-5.3-5.8
			c0,0,0,0-0.1,0c-3,0-5.4,2.5-5.3,5.4c0,0.1,0,0.1,0,0.2V13c-0.1,3,2.3,5.6,5.3,5.7c0,0,0.1,0,0.1,0c3,0,5.4-2.4,5.4-5.4
			C358.8,13.1,358.8,13.1,358.8,13"/>
		<path id="Path_89" class="st0" d="M411.5,28v16.4l-13.8-15.8c-0.5-0.5-1.1-0.8-1.8-0.8c-1.4,0-2.5,1.1-2.5,2.5v24.6h5.8V38.6
			L413,54.4c0.5,0.5,1.1,0.8,1.8,0.8c1.4,0,2.5-1.1,2.5-2.5c0,0,0,0,0,0V28H411.5z"/>
		<path id="Path_90" class="st0" d="M276.3,28h-5.8v25c-0.1,0.9,0.6,1.7,1.5,1.8c0.1,0,0.2,0,0.3,0h17.6v-5.4h-13.6V28z"/>
		<rect id="Rectangle_37" x="350.4" y="28" class="st0" width="5.8" height="26.9"/>
		<path id="Path_91" class="st0" d="M293.9,29.8V53c-0.1,0.9,0.6,1.7,1.5,1.8c0.1,0,0.2,0,0.3,0h17.9v-5.2h-13.9v-5.7h13.9v-5.3
			h-13.9v-5.3h13.9V28h-17.9c-0.9-0.1-1.7,0.6-1.8,1.5C293.9,29.6,293.9,29.7,293.9,29.8"/>
		<path id="Path_92" class="st0" d="M374.9,33.5c2.4,0,4.6,1,6.1,2.8l5.1-2.8c-4.5-6.2-13.1-7.6-19.4-3.2c-1.2,0.8-2.2,1.8-3,3
			l5.1,3C370.3,34.5,372.5,33.5,374.9,33.5"/>
		<path id="Path_93" class="st0" d="M382.6,39.2c0.2,0.8,0.3,1.6,0.3,2.3c0,3.8-2.7,7.2-6.5,7.9v5.9c7.6-0.9,13-7.9,12.1-15.5
			c-0.1-1.2-0.4-2.4-0.9-3.5L382.6,39.2z"/>
		<path id="Path_94" class="st0" d="M366.8,41.5c0-0.8,0.1-1.7,0.4-2.5l-5.1-2.9c-3,7.1,0.3,15.2,7.4,18.2c1.2,0.5,2.4,0.8,3.7,1
			v-5.9C369.4,48.7,366.8,45.4,366.8,41.5"/>
		<path id="Path_95" class="st0" d="M345.6,40.6c-0.2-0.8-1-1.3-1.8-1.2h-13.8v5.3h9.2c-1.8,4.1-6.5,6-10.6,4.3
			c-2.7-1.1-4.5-3.7-4.9-6.6c-0.1-1.1,0-2.2,0.3-3.3c1.7-5.9,10-7.6,13.8-2.8l5.1-2.8c-4.5-6.2-13.1-7.7-19.3-3.2
			c-1.2,0.8-2.2,1.9-3.1,3c-0.7,0.9-1.2,1.9-1.7,2.9c-3.8,8.2,2.3,18.4,11.1,19.2c7.6,0.9,14.5-4.5,15.4-12.1
			c0.1-0.8,0.1-1.6,0.1-2.4C345.7,40.8,345.6,40.7,345.6,40.6"/>
		<path id="Path_127" class="st0" d="M270.4,0.5h2.2v17.7h11.1v2.1h-13.4V0.5z"/>
	</g>
</g>
</svg>
