<?xml version="1.0" encoding="utf-8"?>
<!-- Generator: Adobe Illustrator 28.0.0, SVG Export Plug-In . SVG Version: 6.00 Build 0)  -->
<svg version="1.1" id="Layer_1" xmlns="http://www.w3.org/2000/svg" xmlns:xlink="http://www.w3.org/1999/xlink" x="0px" y="0px"
	 viewBox="0 0 164 55" style="enable-background:new 0 0 164 55;" xml:space="preserve">
<style type="text/css">
	.st0{fill:#E12326;}
	.st1{fill:#FFFFFF;}
</style>
<g id="Group_122" transform="translate(0 -0.874)">
	<rect id="Rectangle_38" x="-0.4" y="0.9" class="st0" width="164.7" height="54.9"/>
	<path id="Path_96" class="st1" d="M71.4,19.4c-2.7,0-5.2,1.3-6.9,3.4v-3h-5.8v21.1h5.8v-12c0-2.5,2.1-4.5,4.6-4.5
		c0.1,0,0.1,0,0.2,0c2.6-0.1,4.8,1.8,4.9,4.4c0,0,0,0,0,0.1v12H80V27.8C80,23,76.5,19.4,71.4,19.4"/>
	<path id="Path_97" class="st1" d="M121.2,19.8L116,34.2l-5.2-14.4h-6.6l8.7,21.1h6.4l8.7-21.1H121.2z"/>
	<path id="Path_98" class="st1" d="M52.5,34.4c-2.4,1.8-3.8,2.2-6.1,2.2c-1.7,0.1-3.4-0.5-4.7-1.7l14.8-6.2
		c-0.3-2.2-1.1-4.2-2.5-5.9c-2.1-2.3-5.2-3.6-8.3-3.5c-6-0.2-11,4.5-11.2,10.4c0,0.2,0,0.3,0,0.5c0,6.4,4.8,10.9,11.8,10.9
		c3.9,0,7.9-1.9,9.8-4L52.5,34.4z M41.4,26.1c1.1-1.4,2.7-2.2,4.5-2.1c2,0,3.7,1.2,4.5,3l-10.1,4.2C39.9,29.4,40.3,27.6,41.4,26.1"
		/>
	<path id="Path_99" class="st1" d="M34,35.6H20.8V13.5h-5.9v27.5H34V35.6z"/>
	<path id="Path_100" class="st1" d="M138.3,41.3c-6.3,0-11.3-4.7-11.3-10.9c0-6.1,5-10.9,11.4-10.9c6-0.2,11.1,4.5,11.3,10.6
		c0,0.1,0,0.2,0,0.3C149.7,36.5,144.7,41.3,138.3,41.3 M138.3,24.4c-3.2,0-5.6,2.5-5.6,6c-0.1,3.2,2.4,5.8,5.5,5.9c0,0,0.1,0,0.1,0
		c3.2,0,5.6-2.5,5.6-5.9c0.1-3.2-2.4-5.8-5.5-6C138.3,24.4,138.3,24.4,138.3,24.4"/>
	<path id="Path_101" class="st1" d="M93.6,41.3c-6.4,0-11.3-4.7-11.3-10.9c0.1-6.1,5.1-11,11.2-10.9c0.1,0,0.2,0,0.2,0
		c6-0.2,11.1,4.5,11.3,10.6c0,0.1,0,0.2,0,0.3C105,36.5,100,41.3,93.6,41.3 M93.6,24.4c-3.2,0-5.6,2.5-5.6,6
		c-0.1,3.2,2.4,5.8,5.6,5.9c0,0,0.1,0,0.1,0c3.1,0,5.6-2.5,5.6-5.6c0-0.1,0-0.2,0-0.3c0.1-3.2-2.4-5.8-5.5-6
		C93.7,24.4,93.6,24.4,93.6,24.4"/>
</g>
</svg>
